# xmcd
#
# Track frame offsets:
#	150
#	19075
#	39795
#	60112
#	89300
#	103790
#	124687
#	147642
#	170565
#
# Disc length: 2587 seconds
#
# Revision: 2
# Processed by: cddbd v1.5.2PL0 Copyright (c) Steve Scherf et al.
# Submitted via: audiograbber 1.83.01
#
DISCID=6e0a1909
DTITLE=John Lee Hooker with Lowell Fulson - I Feel Good
DYEAR=1995
DGENRE=Blues
TTITLE0=I Feel Good
TTITLE1=Baby Baby
TTITLE2=Dazie Mae
TTITLE3=Stand By
TTITLE4=Going Home
TTITLE5=Looking Back Over My Day
TTITLE6=Roll and Tumble
TTITLE7=Baby Don't Do Me Wrong
TTITLE8=Come On Baby
EXTD=Lowell Fulson plays lead guitar on most tracks
EXTT0=
EXTT1=
EXTT2=
EXTT3=
EXTT4=
EXTT5=
EXTT6=
EXTT7=
EXTT8=
PLAYORDER=
